<svg width="18" height="18" viewBox="0 0 18 18" fill="none" xmlns="http://www.w3.org/2000/svg">
<path fill-rule="evenodd" clip-rule="evenodd" d="M8.18625 2.8125C11.1562 2.8125 13.5637 5.22 13.5637 8.18625C13.5637 11.1562 11.1562 13.5637 8.18625 13.5637C5.22 13.5637 2.8125 11.1562 2.8125 8.18625C2.8125 5.22 5.22 2.8125 8.18625 2.8125ZM8.18625 1.3125C4.39125 1.3125 1.3125 4.39125 1.3125 8.18625C1.3125 11.985 4.39125 15.0637 8.18625 15.0637C9.8175 15.0637 11.31 14.4975 12.4913 13.5525L15.8298 16.8876C15.9763 17.0339 16.2136 17.0339 16.36 16.8875L16.8875 16.36C17.0339 16.2136 17.0339 15.9763 16.8876 15.8298L13.5525 12.4913C14.4975 11.31 15.0637 9.8175 15.0637 8.18625C15.0637 4.39125 11.985 1.3125 8.18625 1.3125Z" fill="#202020"/>
</svg>
