<svg width="20" height="20" viewBox="0 0 20 20" fill="none" xmlns="http://www.w3.org/2000/svg">
<path fill-rule="evenodd" clip-rule="evenodd" d="M8.82133 9.99984L4.28854 5.46705C4.12582 5.30434 4.12582 5.04052 4.28854 4.8778L4.8778 4.28854C5.04052 4.12582 5.30434 4.12582 5.46705 4.28854L9.99984 8.82133L14.5326 4.28854C14.6953 4.12582 14.9592 4.12582 15.1219 4.28854L15.7111 4.8778C15.8739 5.04052 15.8739 5.30434 15.7111 5.46705L11.1783 9.99984L15.7111 14.5326C15.8739 14.6953 15.8739 14.9592 15.7111 15.1219L15.1219 15.7111C14.9592 15.8739 14.6953 15.8739 14.5326 15.7111L9.99984 11.1783L5.46705 15.7111C5.30434 15.8739 5.04052 15.8739 4.8778 15.7111L4.28854 15.1219C4.12582 14.9592 4.12582 14.6953 4.28854 14.5326L8.82133 9.99984Z" fill="black" fill-opacity="0.48"/>
</svg>
