<svg width="20" height="20" viewBox="0 0 20 20" fill="none" xmlns="http://www.w3.org/2000/svg">
<path d="M13.3721 5.06055C13.5391 5.06055 13.8242 5.08651 14.2266 5.13965C14.6291 5.19282 15.0703 5.34505 15.5488 5.5957C16.0348 5.83874 16.4753 6.24501 16.8701 6.81445C16.8473 6.83723 16.7374 6.92121 16.54 7.06543C16.3426 7.20215 16.122 7.40723 15.8789 7.68066C15.6359 7.94648 15.4235 8.28836 15.2412 8.70605C15.0589 9.11621 14.9678 9.60612 14.9678 10.1758C14.9678 10.8289 15.0817 11.3832 15.3096 11.8389C15.545 12.2946 15.8143 12.6633 16.1182 12.9443C16.4295 13.2177 16.703 13.4187 16.9385 13.5479C17.1815 13.677 17.311 13.7453 17.3262 13.7529C17.3186 13.7833 17.2192 14.0536 17.0293 14.5625C16.847 15.0713 16.5434 15.6371 16.1182 16.2598C15.746 16.799 15.3431 17.2962 14.9102 17.752C14.4848 18.2077 13.9721 18.4355 13.3721 18.4355C12.9697 18.4355 12.639 18.3785 12.3809 18.2646C12.1229 18.1432 11.8571 18.0259 11.584 17.9121C11.3105 17.7906 10.9418 17.7295 10.4785 17.7295C10.0304 17.7295 9.65441 17.7906 9.35059 17.9121C9.0544 18.0336 8.7695 18.1549 8.49609 18.2764C8.23033 18.3979 7.91523 18.4589 7.55078 18.459C6.99631 18.459 6.50955 18.2384 6.0918 17.7979C5.67409 17.3573 5.24517 16.829 4.80469 16.2139C4.29586 15.4847 3.85869 14.5959 3.49414 13.5479C3.13728 12.4923 2.95902 11.4291 2.95898 10.3584C2.95898 9.21148 3.17546 8.25033 3.6084 7.47559C4.04126 6.6934 4.59566 6.10492 5.27148 5.70996C5.95498 5.30746 6.66157 5.10553 7.39062 5.10547C7.77793 5.10547 8.14263 5.17073 8.48438 5.2998C8.82611 5.42131 9.14523 5.54668 9.44141 5.67578C9.74509 5.80485 10.0187 5.86908 10.2617 5.86914C10.4971 5.86914 10.7707 5.8007 11.082 5.66406C11.3934 5.52734 11.7435 5.39475 12.1309 5.26562C12.5181 5.12898 12.9317 5.06058 13.3721 5.06055ZM13.6455 0.788086C13.6682 0.8867 13.6797 1.00415 13.6797 1.14062C13.6797 1.59626 13.5926 2.04078 13.418 2.47363C13.2433 2.89891 13.0195 3.27912 12.7461 3.61328C12.4499 3.97027 12.077 4.27062 11.6289 4.51367C11.181 4.74893 10.7559 4.86615 10.3535 4.86621C10.2701 4.86621 10.1901 4.8589 10.1143 4.84375C10.1067 4.821 10.0984 4.77936 10.0908 4.71875C10.0832 4.65799 10.0801 4.59277 10.0801 4.52441C10.0801 4.0688 10.1785 3.62837 10.376 3.20312C10.5735 2.77018 10.7972 2.41287 11.0479 2.13184C11.3669 1.75208 11.7698 1.43717 12.2559 1.18652C12.7418 0.935936 13.2051 0.803333 13.6455 0.788086Z" fill="black"/>
</svg>
