<svg width="20" height="20" viewBox="0 0 20 20" fill="none" xmlns="http://www.w3.org/2000/svg">
<path d="M1.8208 6.51145V1.03556C1.8208 0.805445 2.00735 0.618896 2.23747 0.618896H3.88873C4.12478 0.618896 4.31369 0.814793 4.30512 1.05068L4.21557 3.51667C4.92269 2.90429 5.83407 2.30294 6.71173 1.94215C8.55269 1.18536 10.5973 1.08179 12.5053 1.64865C14.4133 2.21551 16.0697 3.41863 17.1988 5.05781C18.328 6.697 18.8618 8.6734 18.7114 10.6582C18.561 12.6429 17.7356 14.5163 16.3724 15.9667C15.0092 17.417 13.1904 18.3569 11.2188 18.6298C9.24715 18.9028 7.2415 18.4923 5.53556 17.4668C3.94892 16.513 2.71053 15.0807 1.99488 13.3811C1.90558 13.169 2.0176 12.9292 2.23371 12.8502L3.69061 12.3172C3.90671 12.2381 4.14474 12.3499 4.23797 12.5603C5.2209 14.7784 7.44183 16.3258 10.0242 16.3258C13.5178 16.3258 16.3499 13.4936 16.3499 9.99999C16.3499 6.50638 13.5178 3.67424 10.0242 3.67424C8.41673 3.67424 6.844 4.379 5.72807 5.36667L8.53315 5.27544C8.76845 5.26779 8.96336 5.45646 8.96336 5.69189V7.34479C8.96336 7.57491 8.77681 7.76145 8.54669 7.76145H3.0708C2.38045 7.76145 1.8208 7.20181 1.8208 6.51145Z" fill="#F6F6F6"/>
</svg>
