<svg width="16" height="16" viewBox="0 0 16 16" fill="none" xmlns="http://www.w3.org/2000/svg">
<path d="M13.3329 13.333C13.517 13.333 13.6669 13.4829 13.6669 13.667V14.333C13.6669 14.5171 13.517 14.667 13.3329 14.667H2.66687C2.48278 14.667 2.33289 14.5171 2.33289 14.333V13.667C2.33289 13.4829 2.48278 13.333 2.66687 13.333H13.3329ZM8.33289 1.33301C8.51698 1.33301 8.66687 1.4829 8.66687 1.66699V9.72363L11.9598 6.43066C12.0899 6.30094 12.3005 6.30091 12.4305 6.43066L12.9022 6.90234C13.0324 7.03252 13.0324 7.24385 12.9022 7.37402L8.47156 11.8047C8.21121 12.065 7.78855 12.065 7.5282 11.8047L3.09753 7.37402C2.96736 7.24385 2.96736 7.03252 3.09753 6.90234L3.56921 6.43066C3.6993 6.30091 3.90981 6.30094 4.03992 6.43066L7.33289 9.72363V1.66699C7.33289 1.4829 7.48278 1.33301 7.66687 1.33301H8.33289Z" fill="#202020"/>
</svg>
