<svg width="24" height="24" viewBox="0 0 24 24" fill="none" xmlns="http://www.w3.org/2000/svg">
<path d="M12.5 7.5C12.7761 7.5 13 7.72386 13 8V11H16C16.2761 11 16.5 11.2239 16.5 11.5V12.5C16.5 12.7761 16.2761 13 16 13H13V16C13 16.2761 12.7761 16.5 12.5 16.5H11.5C11.2239 16.5 11 16.2761 11 16V13H8C7.72386 13 7.5 12.7761 7.5 12.5V11.5C7.5 11.2239 7.72386 11 8 11H11V8C11 7.72386 11.2239 7.5 11.5 7.5H12.5Z" fill="#202020"/>
<path d="M16.7902 2.25H7.20984C6.54398 2.24999 5.98444 2.24997 5.52657 2.28738C5.04785 2.3265 4.59289 2.41144 4.16103 2.63148C3.50247 2.96704 2.96704 3.50247 2.63148 4.16103C2.41144 4.59289 2.3265 5.04785 2.28738 5.52657C2.24997 5.98444 2.24999 6.54396 2.25 7.20983V16.7902C2.24999 17.456 2.24997 18.0156 2.28738 18.4734C2.3265 18.9521 2.41144 19.4071 2.63148 19.839C2.96704 20.4975 3.50247 21.033 4.16103 21.3685C4.59289 21.5886 5.04785 21.6735 5.52657 21.7126C5.98446 21.75 6.54399 21.75 7.20988 21.75H16.7901C17.456 21.75 18.0155 21.75 18.4734 21.7126C18.9522 21.6735 19.4071 21.5886 19.839 21.3685C20.4975 21.033 21.033 20.4975 21.3685 19.839C21.5886 19.4071 21.6735 18.9521 21.7126 18.4734C21.75 18.0156 21.75 17.4561 21.75 16.7902V7.20982C21.75 6.54397 21.75 5.98443 21.7126 5.52657C21.6735 5.04785 21.5886 4.59289 21.3685 4.16103C21.033 3.50247 20.4975 2.96704 19.839 2.63148C19.4071 2.41144 18.9522 2.3265 18.4734 2.28738C18.0156 2.24997 17.456 2.24999 16.7902 2.25ZM5.06902 4.41349C5.17194 4.36105 5.3344 4.30975 5.68944 4.28074C6.05615 4.25078 6.53343 4.25 7.25 4.25H16.75C17.4666 4.25 17.9439 4.25078 18.3106 4.28074C18.6656 4.30975 18.8281 4.36105 18.931 4.41349C19.2132 4.5573 19.4427 4.78677 19.5865 5.06902C19.639 5.17194 19.6903 5.3344 19.7193 5.68944C19.7492 6.05615 19.75 6.53343 19.75 7.25V16.75C19.75 17.4666 19.7492 17.9439 19.7193 18.3106C19.6903 18.6656 19.639 18.8281 19.5865 18.931C19.4427 19.2132 19.2132 19.4427 18.931 19.5865C18.8281 19.639 18.6656 19.6903 18.3106 19.7193C17.9439 19.7492 17.4666 19.75 16.75 19.75H7.25C6.53343 19.75 6.05615 19.7492 5.68944 19.7193C5.3344 19.6903 5.17194 19.639 5.06902 19.5865C4.78677 19.4427 4.5573 19.2132 4.41349 18.931C4.36105 18.8281 4.30975 18.6656 4.28074 18.3106C4.25078 17.9439 4.25 17.4666 4.25 16.75V7.25C4.25 6.53343 4.25078 6.05615 4.28074 5.68944C4.30975 5.3344 4.36105 5.17194 4.41349 5.06902C4.5573 4.78677 4.78677 4.5573 5.06902 4.41349Z" fill="#202020"/>
</svg>
