<svg width="24" height="24" viewBox="0 0 24 24" fill="none" xmlns="http://www.w3.org/2000/svg">
<path d="M14.6677 13.5611C14.5334 13.855 14.4662 14.002 14.3724 14.1286C14.2892 14.2408 14.1907 14.3409 14.0798 14.4259C13.9547 14.5217 13.8088 14.5913 13.517 14.7303L7.64801 17.5263C7.03596 17.8179 6.72994 17.9637 6.5459 17.909C6.38652 17.8617 6.26109 17.7383 6.21123 17.5797C6.15365 17.3965 6.29454 17.0882 6.5763 16.4716L9.33271 10.4394C9.46704 10.1454 9.53421 9.99845 9.62802 9.8719C9.71124 9.75964 9.80974 9.65955 9.92066 9.57455C10.0457 9.47873 10.1916 9.40923 10.4834 9.27021L16.3524 6.47417C16.9645 6.18258 17.2705 6.03679 17.4545 6.09143C17.6139 6.13875 17.7393 6.2622 17.7892 6.42081C17.8468 6.60395 17.7059 6.91226 17.4241 7.52889L14.6677 13.5611ZM13.2489 12.113C13.3091 11.4253 12.8004 10.819 12.1126 10.7588C11.4249 10.6987 10.8186 11.2074 10.7584 11.8951C10.6983 12.5829 11.207 13.1892 11.8947 13.2493C12.5825 13.3095 13.1888 12.8008 13.2489 12.113Z" fill="#202020"/>
<path d="M23 12.0005C23 18.0756 18.0751 23.0005 12 23.0005C5.92487 23.0005 1 18.0756 1 12.0005C1 5.92536 5.92487 1.00049 12 1.00049C18.0751 1.00049 23 5.92536 23 12.0005ZM21 12.0005C21 7.02993 16.9706 3.00049 12 3.00049C7.02944 3.00049 3 7.02993 3 12.0005C3 16.9711 7.02944 21.0005 12 21.0005C16.9706 21.0005 21 16.9711 21 12.0005Z" fill="#202020"/>
</svg>
