<svg width="30" height="30" viewBox="0 0 30 30" fill="none" xmlns="http://www.w3.org/2000/svg">
<path d="M8.33283 11.25C8.56295 11.25 8.7467 11.4377 8.77521 11.666C8.90366 12.6941 9.50647 13.6605 10.4969 14.418C11.621 15.2775 13.2105 15.833 14.9998 15.833C16.7891 15.833 18.3787 15.2775 19.5027 14.418C20.4932 13.6605 21.096 12.6941 21.2244 11.666C21.2529 11.4377 21.4367 11.25 21.6668 11.25H22.4998C22.7298 11.25 22.9179 11.4368 22.8992 11.666C22.7645 13.3016 21.8433 14.726 20.5145 15.7422C20.4032 15.8272 20.2889 15.9096 20.1717 15.9893L21.2352 17.8311C21.35 18.0302 21.2819 18.2853 21.0828 18.4004L20.3611 18.8164C20.1619 18.9315 19.9069 18.8634 19.7918 18.6641L18.7029 16.7793C17.8264 17.1443 16.8557 17.3818 15.8328 17.4658V19.583C15.8328 19.813 15.6468 19.9998 15.4168 20H14.5828C14.3529 19.9998 14.1668 19.813 14.1668 19.583V17.4658C13.2548 17.3909 12.384 17.1941 11.5848 16.8936L10.4012 18.9434C10.2861 19.1424 10.032 19.2105 9.83283 19.0957L9.11115 18.6797C8.91199 18.5647 8.84308 18.3096 8.95783 18.1104L10.0858 16.1572C9.87705 16.0271 9.67655 15.8885 9.48517 15.7422C8.15637 14.726 7.23514 13.3016 7.1004 11.666C7.08171 11.4368 7.2698 11.25 7.49982 11.25H8.33283Z" fill="black" fill-opacity="0.48"/>
</svg>
