<svg width="30" height="30" viewBox="0 0 30 30" fill="none" xmlns="http://www.w3.org/2000/svg">
<path d="M14.9995 7.91699C20.8326 7.91699 23.7496 13.0632 24.1665 15.208C23.7498 17.3526 20.8328 22.5 14.9995 22.5C9.16639 22.4998 6.25016 17.3526 5.8335 15.208C6.25042 13.0632 9.16673 7.91718 14.9995 7.91699ZM14.9995 11.335C12.9006 11.3351 11.1989 13.0689 11.1987 15.208C11.1987 17.3473 12.9005 19.0819 14.9995 19.082C17.0986 19.082 18.8003 17.3474 18.8003 15.208C18.8001 13.0688 17.0985 11.335 14.9995 11.335ZM14.9995 13.1572C16.1107 13.1572 17.012 14.0755 17.0122 15.208C17.0122 16.3406 16.1108 17.2588 14.9995 17.2588C13.8884 17.2586 12.9878 16.3405 12.9878 15.208C12.988 14.0757 13.8885 13.1574 14.9995 13.1572Z" fill="black" fill-opacity="0.48"/>
</svg>
