<svg width="20" height="20" viewBox="0 0 20 20" fill="none" xmlns="http://www.w3.org/2000/svg">
<g clip-path="url(#clip0_9_1390)">
<g clip-path="url(#clip1_9_1390)">
<circle cx="10" cy="10" r="10" fill="white"/>
<path d="M11.5618 19.8788C16.3428 19.1289 20 14.9916 20 10C20 4.47715 15.5228 0 10 0C4.47715 0 0 4.47715 0 10C0 14.9888 3.65316 19.1244 8.4303 19.8775V12.9757H5.87494V10.0651H8.4303C8.4303 10.0651 8.41854 8.4086 8.4303 7.67108C8.44206 6.93355 8.58707 6.22363 8.96724 5.57681C9.55121 4.57504 10.4605 4.08598 11.5775 3.94794C12.5251 3.82976 13.5268 3.93712 14.462 4.11359C14.462 4.11359 14.46 5.77157 14.462 6.59831C14.3773 6.59677 14.2816 6.59389 14.179 6.59079C13.7552 6.578 13.2127 6.56164 12.8277 6.62197C12.036 6.74424 11.5814 7.25301 11.5657 8.05364C11.55 8.67679 11.5579 10.0651 11.5579 10.0651H14.3445L13.8938 12.9757H11.5618V19.8788Z" fill="#0075FA"/>
</g>
</g>
<defs>
<clipPath id="clip0_9_1390">
<rect width="20" height="20" fill="white"/>
</clipPath>
<clipPath id="clip1_9_1390">
<rect width="20" height="20" fill="white"/>
</clipPath>
</defs>
</svg>
