<svg width="20" height="20" viewBox="0 0 20 20" fill="none" xmlns="http://www.w3.org/2000/svg">
<path fill-rule="evenodd" clip-rule="evenodd" d="M17.9168 10.1797C17.9168 9.61839 17.8654 9.07858 17.7699 8.56042H10.1616V11.6227H14.5092C14.3219 12.6123 13.7528 13.4508 12.8973 14.0121V15.9985H15.508C17.0355 14.6203 17.9168 12.5907 17.9168 10.1797Z" fill="#4285F4"/>
<path fill-rule="evenodd" clip-rule="evenodd" d="M10.1614 17.9171C12.3425 17.9171 14.1712 17.2082 15.5078 15.9991L12.8971 14.0127C12.1736 14.4877 11.2483 14.7684 10.1614 14.7684C8.05738 14.7684 6.27646 13.3758 5.64126 11.5045H2.94238V13.5557C4.27163 16.1431 7.0035 17.9171 10.1614 17.9171Z" fill="#34A853"/>
<path fill-rule="evenodd" clip-rule="evenodd" d="M5.64136 11.5039C5.47976 11.0289 5.38796 10.5215 5.38796 9.99972C5.38796 9.47796 5.47976 8.97057 5.64136 8.49555V6.44446H2.94249C2.39538 7.51319 2.08325 8.72228 2.08325 9.99972C2.08325 11.2772 2.39538 12.4863 2.94249 13.5551L5.64136 11.5039Z" fill="#FBBC04"/>
<path fill-rule="evenodd" clip-rule="evenodd" d="M10.1614 5.23206C11.3474 5.23206 12.4123 5.63151 13.2495 6.41597L15.5665 4.14532C14.1675 2.86788 12.3389 2.08337 10.1614 2.08337C7.0035 2.08337 4.27163 3.85744 2.94238 6.44479L5.64126 8.49588C6.27646 6.62468 8.05738 5.23206 10.1614 5.23206Z" fill="#EA4335"/>
</svg>
