<svg width="24" height="24" viewBox="0 0 24 24" fill="none" xmlns="http://www.w3.org/2000/svg">
<path d="M11.3658 1.72669C11.7344 1.42444 12.2652 1.42444 12.6338 1.72667L23.3675 10.5267C23.6943 10.7945 23.8174 11.2388 23.6752 11.6367C23.5329 12.0345 23.156 12.3 22.7335 12.3H21.1795L20.3848 20.9852C20.3063 21.8432 19.5867 22.5 18.7251 22.5H5.27531C4.41368 22.5 3.69409 21.8432 3.61558 20.9852L2.82085 12.3H1.26647C0.843986 12.3 0.467083 12.0345 0.324847 11.6367C0.182611 11.2388 0.305735 10.7946 0.63245 10.5267L11.3658 1.72669ZM11.9998 3.79312L4.0634 10.3H4.6462L5.57954 20.5H10.9998V15.3759C10.9998 15.0077 11.2983 14.7092 11.6665 14.7092H12.3331C12.7013 14.7092 12.9998 15.0077 12.9998 15.3759V20.5H18.4209L19.3542 10.3H19.9365L11.9998 3.79312Z" fill="#202020"/>
</svg>
