<svg width="24" height="24" viewBox="0 0 24 24" fill="none" xmlns="http://www.w3.org/2000/svg">
<path d="M10.95 16.9232C10.95 17.2109 11.1832 17.4441 11.4708 17.4441H12.5292C12.8168 17.4441 13.05 17.2109 13.05 16.9232V9.63155C13.05 9.3439 12.8168 9.11072 12.5292 9.11072H11.4708C11.1832 9.11072 10.95 9.3439 10.95 9.63155V16.9232Z" fill="#202020"/>
<path d="M7.42318 17.444C7.13553 17.444 6.90234 17.2108 6.90234 16.9232V13.3518C6.90234 13.0641 7.13553 12.8309 7.42318 12.8309H8.48151C8.76916 12.8309 9.00234 13.0641 9.00234 13.3518V16.9232C9.00234 17.2108 8.76916 17.444 8.48151 17.444H7.42318Z" fill="#202020"/>
<path d="M14.9977 16.9232C14.9977 17.2109 15.2308 17.444 15.5185 17.444H16.5768C16.8645 17.444 17.0977 17.2109 17.0977 16.9232V11.8637C17.0977 11.576 16.8645 11.3428 16.5768 11.3428H15.5185C15.2308 11.3428 14.9977 11.576 14.9977 11.8637V16.9232Z" fill="#202020"/>
<path d="M20.0404 4.97539C18.9616 4.30358 17.5485 4.1995 15.0308 4.18338L17.0453 2.16886C17.2507 1.96345 17.2507 1.63042 17.0453 1.42501L16.3014 0.681156C16.096 0.475747 15.763 0.475747 15.5576 0.681156L12.0583 4.18042H11.9299L8.44254 0.693073C8.23713 0.487664 7.9041 0.487663 7.69869 0.693072L6.95484 1.43692C6.74943 1.64233 6.74943 1.97537 6.95484 2.18078L8.95752 4.18345C6.44725 4.19983 5.03695 4.30465 3.95986 4.97539C3.27696 5.40066 2.70071 5.97691 2.27544 6.65981C1.48047 7.93638 1.48047 9.68102 1.48047 13.1703C1.48047 16.6596 1.48047 18.4042 2.27544 19.6808C2.70071 20.3637 3.27696 20.9399 3.95986 21.3652C5.23643 22.1602 6.98107 22.1602 10.4703 22.1602H13.5299C17.0192 22.1602 18.7638 22.1602 20.0404 21.3652C20.7233 20.9399 21.2995 20.3637 21.7248 19.6808C22.5198 18.4042 22.5198 16.6596 22.5198 13.1703C22.5198 9.68102 22.5198 7.93638 21.7248 6.65981C21.2995 5.97691 20.7233 5.40066 20.0404 4.97539ZM13.5299 6.18042C15.3138 6.18042 16.5094 6.18258 17.4232 6.27058C18.3066 6.35565 18.7151 6.50616 18.9831 6.67311C19.4064 6.93667 19.7635 7.29381 20.0271 7.71705C20.194 7.98514 20.3445 8.39364 20.4296 9.277C20.5176 10.1908 20.5198 11.3864 20.5198 13.1703C20.5198 14.9542 20.5176 16.1498 20.4296 17.0636C20.3445 17.9469 20.194 18.3554 20.0271 18.6235C19.7635 19.0468 19.4064 19.4039 18.9831 19.6675C18.7151 19.8344 18.3066 19.9849 17.4232 20.07C16.5094 20.158 15.3138 20.1602 13.5299 20.1602H10.4703C8.68645 20.1602 7.49082 20.158 6.57705 20.07C5.69369 19.9849 5.28519 19.8344 5.0171 19.6675C4.59386 19.4039 4.23672 19.0468 3.97316 18.6235C3.80621 18.3554 3.6557 17.9469 3.57063 17.0636C3.48263 16.1498 3.48047 14.9542 3.48047 13.1703C3.48047 11.3864 3.48263 10.1908 3.57063 9.277C3.6557 8.39364 3.80621 7.98514 3.97316 7.71705C4.23672 7.29381 4.59386 6.93667 5.0171 6.67311C5.28519 6.50616 5.69369 6.35565 6.57705 6.27058C7.49082 6.18258 8.68645 6.18042 10.4703 6.18042H13.5299Z" fill="#202020"/>
</svg>
