<svg width="9" height="9" viewBox="0 0 9 9" fill="none" xmlns="http://www.w3.org/2000/svg">
<g clip-path="url(#clip0_87_7785)">
<path d="M3.45406 4.90918C4.21475 4.90918 4.90566 5.11703 5.44332 5.5459H5.27242C5.00252 5.54598 4.76323 5.67694 4.61422 5.87891C4.28708 5.72071 3.89695 5.63672 3.45406 5.63672C2.73047 5.63681 2.14979 5.86119 1.74996 6.2666C1.37823 6.64359 1.12794 7.2124 1.09469 8C1.09042 8.10026 1.00949 8.18159 0.909143 8.18164H0.545862C0.445446 8.18164 0.363525 8.10035 0.367151 8C0.401206 7.05743 0.702197 6.29355 1.23239 5.75586C1.796 5.18447 2.57828 4.90927 3.45406 4.90918ZM6.90914 4.90918C7.00907 4.90923 7.09074 4.99089 7.09078 5.09082V6.18164H8.1816C8.28149 6.18164 8.36305 6.26344 8.36324 6.36328V6.72754C8.3631 6.82742 8.28151 6.90918 8.1816 6.90918H7.09078V8C7.09078 8.09997 7.0091 8.18159 6.90914 8.18164H6.54586C6.44586 8.18164 6.36324 8.1 6.36324 8V6.90918H5.27242C5.17263 6.90903 5.09093 6.82733 5.09078 6.72754V6.36328C5.09098 6.26353 5.17266 6.18179 5.27242 6.18164H6.36324V5.09082C6.36329 4.99086 6.44589 4.90918 6.54586 4.90918H6.90914ZM3.45406 0.727539C4.45822 0.727539 5.27242 1.54174 5.27242 2.5459C5.27218 3.54985 4.45807 4.36328 3.45406 4.36328C2.45026 4.36304 1.63692 3.5497 1.63668 2.5459C1.63668 1.54189 2.45012 0.72778 3.45406 0.727539ZM3.45406 1.4541C2.85178 1.45434 2.36324 1.94355 2.36324 2.5459C2.36348 3.14804 2.85192 3.63648 3.45406 3.63672C4.05641 3.63672 4.54562 3.14819 4.54586 2.5459C4.54586 1.94341 4.05656 1.4541 3.45406 1.4541Z" fill="black" fill-opacity="0.65"/>
</g>
<defs>
<clipPath id="clip0_87_7785">
<rect width="8.72727" height="8.72727" fill="white"/>
</clipPath>
</defs>
</svg>
