<svg width="20" height="20" viewBox="0 0 20 20" fill="none" xmlns="http://www.w3.org/2000/svg">
<path d="M2.0653 3.41866C1.875 3.87809 1.875 4.46051 1.875 5.62537C1.875 6.79022 1.875 7.37265 2.0653 7.83207C2.31904 8.44464 2.80572 8.93133 3.41829 9.18507C3.87772 9.37537 4.46015 9.37537 5.625 9.37537C6.78985 9.37537 7.37228 9.37537 7.83171 9.18507C8.44428 8.93133 8.93096 8.44464 9.1847 7.83207C9.375 7.37265 9.375 6.79022 9.375 5.62537C9.375 4.46051 9.375 3.87809 9.1847 3.41866C8.93096 2.80609 8.44428 2.3194 7.83171 2.06567C7.37228 1.87537 6.78985 1.87537 5.625 1.87537C4.46015 1.87537 3.87772 1.87537 3.41829 2.06567C2.80572 2.3194 2.31904 2.80609 2.0653 3.41866ZM4.37056 7.68878C4.13385 7.67263 4.06294 7.64799 4.0561 7.64527C3.85191 7.56069 3.68965 7.39847 3.60507 7.19428C3.60235 7.18743 3.57774 7.11652 3.56159 6.8798C3.54257 6.60105 3.54167 6.2306 3.54167 5.62537C3.54167 5.02014 3.54257 4.64968 3.56159 4.37093C3.57774 4.13421 3.60238 4.06331 3.6051 4.05646C3.68968 3.85227 3.85189 3.69002 4.05609 3.60544C4.06293 3.60272 4.13385 3.57811 4.37056 3.56195C4.64932 3.54294 5.01977 3.54203 5.625 3.54203C6.23023 3.54203 6.60068 3.54294 6.87944 3.56195C7.11615 3.57811 7.18706 3.60275 7.1939 3.60547C7.39809 3.69004 7.56035 3.85226 7.64493 4.05645C7.64765 4.0633 7.67226 4.13421 7.68841 4.37093C7.70743 4.64968 7.70833 5.02014 7.70833 5.62537C7.70833 6.2306 7.70743 6.60105 7.68841 6.8798C7.67226 7.11652 7.64762 7.18742 7.6449 7.19427C7.56032 7.39846 7.3981 7.56072 7.19391 7.6453C7.18707 7.64802 7.11615 7.67263 6.87944 7.68878C6.60068 7.7078 6.23023 7.7087 5.625 7.7087C5.01977 7.7087 4.64932 7.7078 4.37056 7.68878Z" fill="black"/>
<path d="M2.0653 12.1687C1.875 12.6281 1.875 13.2105 1.875 14.3754C1.875 15.5402 1.875 16.1226 2.0653 16.5821C2.31904 17.1946 2.80572 17.6813 3.41829 17.9351C3.87772 18.1254 4.46015 18.1254 5.625 18.1254C6.78985 18.1254 7.37228 18.1254 7.83171 17.9351C8.44428 17.6813 8.93096 17.1946 9.1847 16.5821C9.375 16.1226 9.375 15.5402 9.375 14.3754C9.375 13.2105 9.375 12.6281 9.1847 12.1687C8.93096 11.5561 8.44428 11.0694 7.83171 10.8157C7.37228 10.6254 6.78985 10.6254 5.625 10.6254C4.46015 10.6254 3.87772 10.6254 3.41829 10.8157C2.80572 11.0694 2.31904 11.5561 2.0653 12.1687ZM4.37056 16.4388C4.13385 16.4226 4.06294 16.398 4.0561 16.3953C3.85191 16.3107 3.68965 16.1485 3.60507 15.9443C3.60235 15.9374 3.57774 15.8665 3.56159 15.6298C3.54257 15.3511 3.54167 14.9806 3.54167 14.3754C3.54167 13.7701 3.54257 13.3997 3.56159 13.1209C3.57774 12.8842 3.60238 12.8133 3.6051 12.8065C3.68968 12.6023 3.85189 12.44 4.05609 12.3554C4.06293 12.3527 4.13385 12.3281 4.37056 12.312C4.64932 12.2929 5.01977 12.292 5.625 12.292C6.23023 12.292 6.60068 12.2929 6.87944 12.312C7.11615 12.3281 7.18706 12.3527 7.1939 12.3555C7.39809 12.44 7.56035 12.6023 7.64493 12.8065C7.64765 12.8133 7.67226 12.8842 7.68841 13.1209C7.70743 13.3997 7.70833 13.7701 7.70833 14.3754C7.70833 14.9806 7.70743 15.3511 7.68841 15.6298C7.67226 15.8665 7.64762 15.9374 7.6449 15.9443C7.56032 16.1485 7.3981 16.3107 7.19391 16.3953C7.18707 16.398 7.11615 16.4226 6.87944 16.4388C6.60068 16.4578 6.23023 16.4587 5.625 16.4587C5.01977 16.4587 4.64932 16.4578 4.37056 16.4388Z" fill="black"/>
<path d="M10.625 5.62537C10.625 4.46051 10.625 3.87809 10.8153 3.41866C11.069 2.80609 11.5557 2.3194 12.1683 2.06567C12.6277 1.87537 13.2101 1.87537 14.375 1.87537C15.5399 1.87537 16.1223 1.87537 16.5817 2.06567C17.1943 2.3194 17.681 2.80609 17.9347 3.41866C18.125 3.87809 18.125 4.46051 18.125 5.62537C18.125 6.79022 18.125 7.37265 17.9347 7.83207C17.681 8.44464 17.1943 8.93133 16.5817 9.18507C16.1223 9.37537 15.5399 9.37537 14.375 9.37537C13.2101 9.37537 12.6277 9.37537 12.1683 9.18507C11.5557 8.93133 11.069 8.44464 10.8153 7.83207C10.625 7.37265 10.625 6.79022 10.625 5.62537ZM14.375 7.7087C14.9802 7.7087 15.3507 7.7078 15.6294 7.68878C15.8662 7.67263 15.9371 7.64799 15.9439 7.64527C16.1481 7.56069 16.3104 7.39847 16.3949 7.19428C16.3976 7.18743 16.4223 7.11652 16.4384 6.8798C16.4574 6.60105 16.4583 6.2306 16.4583 5.62537C16.4583 5.02014 16.4574 4.64968 16.4384 4.37093C16.4223 4.13421 16.3976 4.06331 16.3949 4.05646C16.3103 3.85227 16.1481 3.69002 15.9439 3.60544C15.9371 3.60272 15.8662 3.57811 15.6294 3.56195C15.3507 3.54294 14.9802 3.54203 14.375 3.54203C13.7698 3.54203 13.3993 3.54294 13.1206 3.56195C12.8838 3.57811 12.8129 3.60275 12.8061 3.60547C12.6019 3.69004 12.4396 3.85226 12.3551 4.05645C12.3523 4.0633 12.3277 4.13421 12.3116 4.37093C12.2926 4.64968 12.2917 5.02014 12.2917 5.62537C12.2917 6.2306 12.2926 6.60105 12.3116 6.8798C12.3277 7.11652 12.3524 7.18742 12.3551 7.19427C12.4397 7.39846 12.6019 7.56072 12.8061 7.6453C12.8129 7.64802 12.8838 7.67263 13.1206 7.68878C13.3993 7.7078 13.7698 7.7087 14.375 7.7087Z" fill="black"/>
<path d="M10.8787 11.0612C10.8333 11.1503 10.8333 11.267 10.8333 11.5004V12.4587C10.8333 12.6921 10.8333 12.8087 10.8787 12.8979C10.9187 12.9763 10.9824 13.04 11.0608 13.08C11.15 13.1254 11.2666 13.1254 11.5 13.1254H12.4583C12.6917 13.1254 12.8084 13.1254 12.8975 13.08C12.9759 13.04 13.0396 12.9763 13.0796 12.8979C13.125 12.8087 13.125 12.6921 13.125 12.4587V11.5004C13.125 11.267 13.125 11.1503 13.0796 11.0612C13.0396 10.9828 12.9759 10.9191 12.8975 10.8791C12.8084 10.8337 12.6917 10.8337 12.4583 10.8337H11.5C11.2666 10.8337 11.15 10.8337 11.0608 10.8791C10.9824 10.9191 10.9187 10.9828 10.8787 11.0612Z" fill="black"/>
<path d="M13.125 13.792C13.125 13.5587 13.125 13.442 13.1704 13.3529C13.2104 13.2745 13.2741 13.2107 13.3525 13.1708C13.4416 13.1254 13.5583 13.1254 13.7917 13.1254H14.75C14.9834 13.1254 15.1 13.1254 15.1892 13.1708C15.2676 13.2107 15.3313 13.2745 15.3713 13.3529C15.4167 13.442 15.4167 13.5587 15.4167 13.792V14.7504C15.4167 14.9837 15.4167 15.1004 15.3713 15.1895C15.3313 15.2679 15.2676 15.3317 15.1892 15.3716C15.1 15.417 14.9834 15.417 14.75 15.417H13.7917C13.5583 15.417 13.4416 15.417 13.3525 15.3716C13.2741 15.3317 13.2104 15.2679 13.1704 15.1895C13.125 15.1004 13.125 14.9837 13.125 14.7504V13.792Z" fill="black"/>
<path d="M15.4621 15.6445C15.4167 15.7337 15.4167 15.8503 15.4167 16.0837V17.042C15.4167 17.2754 15.4167 17.3921 15.4621 17.4812C15.502 17.5596 15.5658 17.6233 15.6442 17.6633C15.7333 17.7087 15.85 17.7087 16.0833 17.7087H17.0417C17.275 17.7087 17.3917 17.7087 17.4808 17.6633C17.5592 17.6233 17.623 17.5596 17.6629 17.4812C17.7083 17.3921 17.7083 17.2754 17.7083 17.042V16.0837C17.7083 15.8503 17.7083 15.7337 17.6629 15.6445C17.623 15.5661 17.5592 15.5024 17.4808 15.4624C17.3917 15.417 17.275 15.417 17.0417 15.417H16.0833C15.85 15.417 15.7333 15.417 15.6442 15.4624C15.5658 15.5024 15.502 15.5661 15.4621 15.6445Z" fill="black"/>
<path d="M10.8333 16.0837C10.8333 15.8503 10.8333 15.7337 10.8787 15.6445C10.9187 15.5661 10.9824 15.5024 11.0608 15.4624C11.15 15.417 11.2666 15.417 11.5 15.417H12.4583C12.6917 15.417 12.8084 15.417 12.8975 15.4624C12.9759 15.5024 13.0396 15.5661 13.0796 15.6445C13.125 15.7337 13.125 15.8503 13.125 16.0837V17.042C13.125 17.2754 13.125 17.3921 13.0796 17.4812C13.0396 17.5596 12.9759 17.6233 12.8975 17.6633C12.8084 17.7087 12.6917 17.7087 12.4583 17.7087H11.5C11.2666 17.7087 11.15 17.7087 11.0608 17.6633C10.9824 17.6233 10.9187 17.5596 10.8787 17.4812C10.8333 17.3921 10.8333 17.2754 10.8333 17.042V16.0837Z" fill="black"/>
<path d="M15.4621 11.0612C15.4167 11.1503 15.4167 11.267 15.4167 11.5004V12.4587C15.4167 12.6921 15.4167 12.8087 15.4621 12.8979C15.502 12.9763 15.5658 13.04 15.6442 13.08C15.7333 13.1254 15.85 13.1254 16.0833 13.1254H17.0417C17.275 13.1254 17.3917 13.1254 17.4808 13.08C17.5592 13.04 17.623 12.9763 17.6629 12.8979C17.7083 12.8087 17.7083 12.6921 17.7083 12.4587V11.5004C17.7083 11.267 17.7083 11.1503 17.6629 11.0612C17.623 10.9828 17.5592 10.9191 17.4808 10.8791C17.3917 10.8337 17.275 10.8337 17.0417 10.8337H16.0833C15.85 10.8337 15.7333 10.8337 15.6442 10.8791C15.5658 10.9191 15.502 10.9828 15.4621 11.0612Z" fill="black"/>
</svg>
