<svg width="16" height="16" viewBox="0 0 16 16" fill="none" xmlns="http://www.w3.org/2000/svg">
<path d="M6.66663 3.00004C6.66663 2.63185 6.9651 2.33337 7.33329 2.33337H8.66663C9.03482 2.33337 9.33329 2.63185 9.33329 3.00004C9.33329 3.36823 9.03482 3.66671 8.66663 3.66671H7.33329C6.9651 3.66671 6.66663 3.36823 6.66663 3.00004Z" fill="#202020"/>
<path d="M5.99996 12.8334C5.99996 12.5572 6.22382 12.3334 6.49996 12.3334H9.49996C9.7761 12.3334 9.99996 12.5572 9.99996 12.8334C9.99996 13.1095 9.7761 13.3334 9.49996 13.3334H6.49996C6.22382 13.3334 5.99996 13.1095 5.99996 12.8334Z" fill="#202020"/>
<path fill-rule="evenodd" clip-rule="evenodd" d="M2.66663 3.53337C2.66663 2.41327 2.66663 1.85322 2.88461 1.42539C3.07636 1.04907 3.38232 0.743108 3.75865 0.551361C4.18647 0.333374 4.74329 0.333374 5.86663 0.333374H10.1333C11.2534 0.333374 11.8135 0.333374 12.2413 0.551361C12.6176 0.743108 12.9236 1.04907 13.1153 1.42539C13.3333 1.85322 13.3333 2.41327 13.3333 3.53337V12.4667C13.3333 13.5868 13.3333 14.1469 13.1153 14.5747C12.9236 14.951 12.6176 15.257 12.2413 15.4487C11.8135 15.6667 11.2534 15.6667 10.1333 15.6667H5.86663C4.74652 15.6667 4.18647 15.6667 3.75865 15.4487C3.38232 15.257 3.07636 14.951 2.88461 14.5747C2.66663 14.1469 2.66663 13.5834 2.66663 12.4667V3.53337ZM5.86663 1.66671H10.1333C10.7153 1.66671 11.0717 1.66774 11.3383 1.68953C11.4625 1.69968 11.5377 1.71242 11.5833 1.72317C11.7446 1.76117 11.9046 1.91816 11.9435 2.08337C11.9542 2.12901 11.967 2.20415 11.9771 2.32835C11.9989 2.59497 12 2.95132 12 3.53337V12.4667C12 13.0488 11.9989 13.4051 11.9771 13.6717C11.967 13.7959 11.9542 13.8711 11.9435 13.9167C11.9055 14.0781 11.7485 14.238 11.5833 14.2769C11.5377 14.2877 11.4625 14.3004 11.3383 14.3106C11.0717 14.3323 10.7153 14.3334 10.1333 14.3334H5.86663C5.28457 14.3334 4.92822 14.3323 4.66161 14.3106C4.5374 14.3004 4.46226 14.2877 4.41663 14.2769C4.25142 14.238 4.09442 14.0781 4.05642 13.9167C4.04567 13.8711 4.03293 13.7959 4.02278 13.6717C4.001 13.4051 3.99996 13.0488 3.99996 12.4667V3.53337C3.99996 2.95132 4.001 2.59497 4.02278 2.32835C4.03293 2.20415 4.04567 2.12901 4.05642 2.08337C4.09533 1.91816 4.25527 1.76117 4.41663 1.72317C4.46226 1.71242 4.5374 1.69968 4.66161 1.68953C4.92822 1.66774 5.28457 1.66671 5.86663 1.66671Z" fill="#202020"/>
</svg>
