<svg width="125" height="28" viewBox="0 0 125 28" fill="none" xmlns="http://www.w3.org/2000/svg">
<path d="M18.6216 11.0231V9.93315C18.2482 9.88332 17.8686 9.85218 17.4765 9.85218C12.8026 9.84595 9 13.6515 9 18.3353C9 21.2066 10.4314 23.7478 12.6221 25.2862C11.2094 23.7727 10.3443 21.736 10.3443 19.5063C10.3443 14.891 14.0411 11.129 18.6216 11.0231Z" fill="#25F4EE"/>
<path d="M18.8264 23.3815C20.9113 23.3815 22.6166 21.7185 22.6913 19.6507L22.6975 1.17095H26.0707C26.0022 0.791011 25.9649 0.39862 25.9649 0H21.3594L21.3532 18.4798C21.2785 20.5476 19.5733 22.2106 17.4884 22.2106C16.8411 22.2106 16.2312 22.0487 15.6898 21.7621C16.3868 22.74 17.5319 23.3815 18.8264 23.3815Z" fill="#25F4EE"/>
<path d="M32.3754 7.43954V6.41185C31.0871 6.41185 29.8922 6.03192 28.8839 5.3717C29.7801 6.3994 30.9937 7.14681 32.3754 7.43954Z" fill="#25F4EE"/>
<path d="M28.8851 5.3779C27.9018 4.25055 27.3105 2.78064 27.3105 1.17371H26.0783C26.3957 2.93012 27.4412 4.4374 28.8851 5.3779Z" fill="#FE2C55"/>
<path d="M17.4827 14.4597C15.348 14.4597 13.6116 16.1974 13.6116 18.3338C13.6116 19.8224 14.458 21.1179 15.6903 21.7657C15.2298 21.1304 14.9559 20.3518 14.9559 19.5047C14.9559 17.3684 16.6923 15.6306 18.827 15.6306C19.2253 15.6306 19.6111 15.6992 19.9721 15.8113V11.1026C19.5987 11.0527 19.2191 11.0216 18.827 11.0216C18.7585 11.0216 18.6963 11.0278 18.6278 11.0278V14.6403C18.2606 14.5282 17.881 14.4597 17.4827 14.4597Z" fill="#FE2C55"/>
<path d="M32.3745 7.44592V11.0273C29.9847 11.0273 27.7691 10.2612 25.9643 8.96566V18.3395C25.9643 23.017 22.1617 26.8288 17.4815 26.8288C15.6767 26.8288 13.9963 26.2558 12.6209 25.2904C14.1706 26.9534 16.38 27.9998 18.8258 27.9998C23.4997 27.9998 27.3085 24.1942 27.3085 19.5104V10.1366C29.1134 11.4321 31.329 12.1982 33.7188 12.1982V7.58918C33.252 7.58918 32.804 7.53935 32.3745 7.44592Z" fill="#FE2C55"/>
<path d="M25.9652 18.3393V8.96548C27.77 10.261 29.9856 11.0271 32.3755 11.0271V7.44574C30.9938 7.153 29.7802 6.40559 28.884 5.3779C27.4402 4.43741 26.4008 2.93012 26.071 1.17371H22.6978L22.6916 19.6535C22.6169 21.7213 20.9117 23.3843 18.8268 23.3843C17.5323 23.3843 16.3934 22.7428 15.6839 21.7711C14.4516 21.1172 13.6052 19.8279 13.6052 18.3393C13.6052 16.2029 15.3416 14.4652 17.4763 14.4652C17.8746 14.4652 18.2604 14.5337 18.6214 14.6458V11.0333C14.0408 11.133 10.344 14.8949 10.344 19.5102C10.344 21.74 11.2091 23.7705 12.6219 25.2902C13.9973 26.2556 15.6776 26.8286 17.4825 26.8286C22.1564 26.8286 25.9652 23.0168 25.9652 18.3393Z" fill="black"/>
<path d="M38.2763 7.44519H52.6714L51.352 11.5684H47.6179V26.8094H42.9627V11.5684L38.2825 11.5746L38.2763 7.44519Z" fill="black"/>
<path d="M76.2589 7.44519H90.99L89.6706 11.5684H85.6067V26.8094H80.9452V11.5684L76.2651 11.5746L76.2589 7.44519Z" fill="black"/>
<path d="M53.5551 13.6123H58.1668V26.8166H53.58L53.5551 13.6123Z" fill="black"/>
<path d="M60.0029 7.39893H64.6146V16.4177L69.1827 11.927H74.6843L68.9026 17.5388L75.3751 26.813H70.2967L65.9775 20.3852L64.6084 21.7119V26.813H59.9967V7.39893H60.0029Z" fill="black"/>
<path d="M108.858 7.39893H113.47V16.4177L118.038 11.927H123.539L117.758 17.5388L124.23 26.813H119.158L114.839 20.3852L113.47 21.7119V26.813H108.858V7.39893Z" fill="black"/>
<path d="M55.8576 12.0959C57.1397 12.0959 58.179 11.0557 58.179 9.77267C58.179 8.4896 57.1397 7.44946 55.8576 7.44946C54.5755 7.44946 53.5362 8.4896 53.5362 9.77267C53.5362 11.0557 54.5755 12.0959 55.8576 12.0959Z" fill="black"/>
<path d="M90.3984 18.908C90.3984 14.7537 93.6036 11.3467 97.68 11.0291C97.4746 11.0104 97.1946 11.0042 96.9892 11.0042C92.6265 11.0042 89.0915 14.5419 89.0915 18.908C89.0915 23.2742 92.6265 26.8119 96.9892 26.8119C97.1946 26.8119 97.4746 26.7995 97.68 26.787C93.6098 26.4693 90.3984 23.0624 90.3984 18.908Z" fill="#25F4EE"/>
<path d="M99.4735 11.0042C99.2619 11.0042 98.9818 11.0166 98.7764 11.0291C102.847 11.3467 106.052 14.7537 106.052 18.908C106.052 23.0624 102.847 26.4693 98.7764 26.787C98.9818 26.8057 99.2619 26.8119 99.4735 26.8119C103.836 26.8119 107.371 23.2742 107.371 18.908C107.371 14.5419 103.836 11.0042 99.4735 11.0042Z" fill="#FE2C55"/>
<path d="M98.2281 22.751C96.1058 22.751 94.3881 21.0319 94.3881 18.908C94.3881 16.7841 96.1058 15.0651 98.2281 15.0651C100.35 15.0651 102.068 16.7841 102.068 18.908C102.068 21.0319 100.344 22.751 98.2281 22.751ZM98.2281 11.0042C93.8653 11.0042 90.3304 14.5419 90.3304 18.908C90.3304 23.2742 93.8653 26.8119 98.2281 26.8119C102.591 26.8119 106.126 23.2742 106.126 18.908C106.126 14.5419 102.591 11.0042 98.2281 11.0042Z" fill="black"/>
</svg>
