<svg width="16" height="16" viewBox="0 0 16 16" fill="none" xmlns="http://www.w3.org/2000/svg">
<g clip-path="url(#clip0_2_825)">
<path d="M9.5608 3.83321H8.19495V9.29663C8.19495 9.9432 7.67079 10.4674 7.02422 10.4674C6.37764 10.4674 5.85348 9.9432 5.85348 9.29663C5.85348 8.65005 6.37764 8.12589 7.02422 8.12589C7.16105 8.12589 7.2924 8.14937 7.41446 8.19251V6.78987C7.28725 6.77023 7.15692 6.76004 7.02422 6.76004C5.6233 6.76004 4.48763 7.89571 4.48763 9.29663C4.48763 10.6975 5.6233 11.8332 7.02422 11.8332C8.42513 11.8332 9.5608 10.6975 9.5608 9.29663V6.51598C10.1084 6.91491 10.7827 7.15028 11.512 7.15028V5.78443C10.4344 5.78443 9.5608 4.91084 9.5608 3.83321Z" fill="#202020"/>
<path fill-rule="evenodd" clip-rule="evenodd" d="M7.99984 0.666626C3.94975 0.666626 0.666504 3.94987 0.666504 7.99996C0.666504 12.05 3.94975 15.3333 7.99984 15.3333C12.0499 15.3333 15.3332 12.05 15.3332 7.99996C15.3332 3.94987 12.0499 0.666626 7.99984 0.666626ZM1.99984 7.99996C1.99984 4.68625 4.68613 1.99996 7.99984 1.99996C11.3135 1.99996 13.9998 4.68625 13.9998 7.99996C13.9998 11.3137 11.3135 14 7.99984 14C4.68613 14 1.99984 11.3137 1.99984 7.99996Z" fill="#202020"/>
</g>
<defs>
<clipPath id="clip0_2_825">
<rect width="16" height="16" fill="white"/>
</clipPath>
</defs>
</svg>
