<svg width="24" height="24" viewBox="0 0 24 24" fill="none" xmlns="http://www.w3.org/2000/svg">
<path d="M12.5 7C12.5 9.76142 10.2614 12 7.5 12C4.73858 12 2.5 9.76142 2.5 7C2.5 4.23858 4.73858 2 7.5 2C10.2614 2 12.5 4.23858 12.5 7ZM10.5 7C10.5 5.34315 9.15685 4 7.5 4C5.84315 4 4.5 5.34315 4.5 7C4.5 8.65685 5.84315 10 7.5 10C9.15685 10 10.5 8.65685 10.5 7Z" fill="#202020"/>
<path d="M22 9.5C22 11.7091 20.2091 13.5 18 13.5C15.7909 13.5 14 11.7091 14 9.5C14 7.29086 15.7909 5.5 18 5.5C20.2091 5.5 22 7.29086 22 9.5ZM20 9.5C20 8.39543 19.1046 7.5 18 7.5C16.8954 7.5 16 8.39543 16 9.5C16 10.6046 16.8954 11.5 18 11.5C19.1046 11.5 20 10.6046 20 9.5Z" fill="#202020"/>
<path d="M3.11936 17.5038C2.4039 18.5264 2.08376 19.8208 2.01466 21.0003C1.99852 21.276 1.77614 21.5 1.5 21.5L0.5 21.5C0.223858 21.5 -0.00120098 21.2763 0.0119528 21.0004C0.0815628 19.5407 0.467234 17.8057 1.48064 16.3573C2.65135 14.684 4.5889 13.5 7.50002 13.5C10.4111 13.5 12.3487 14.6841 13.5194 16.3573C14.5328 17.8057 14.9184 19.5407 14.988 21.0004C15.0012 21.2763 14.7761 21.5 14.5 21.5H13.5C13.2239 21.5 13.0015 21.276 12.9853 21.0003C12.9162 19.8208 12.5961 18.5264 11.8806 17.5038C11.1014 16.39 9.7889 15.5 7.50002 15.5C5.21113 15.5 3.89866 16.39 3.11936 17.5038Z" fill="#202020"/>
<path d="M18 17C17.299 17 16.7273 17.115 16.2586 17.3081C16.0285 16.701 15.7345 16.0967 15.3627 15.5163C16.1026 15.1882 16.9778 15 18 15C20.3202 15 21.8832 15.9696 22.825 17.3446C23.6105 18.4913 23.9187 19.8495 23.9855 21.0004C24.0014 21.2761 23.7761 21.5 23.5 21.5H22.5C22.2239 21.5 22.0019 21.2759 21.9812 21.0005C21.9159 20.1314 21.675 19.2047 21.175 18.4748C20.6169 17.66 19.6798 17 18 17Z" fill="#202020"/>
</svg>
