<svg width="24" height="24" viewBox="0 0 24 24" fill="none" xmlns="http://www.w3.org/2000/svg">
<path fill-rule="evenodd" clip-rule="evenodd" d="M10.5858 12L5.14645 6.56066C4.95118 6.3654 4.95118 6.04882 5.14645 5.85355L5.85355 5.14645C6.04882 4.95118 6.3654 4.95118 6.56066 5.14645L12 10.5858L17.4393 5.14645C17.6346 4.95118 17.9512 4.95118 18.1464 5.14645L18.8536 5.85355C19.0488 6.04882 19.0488 6.3654 18.8536 6.56066L13.4142 12L18.8536 17.4393C19.0488 17.6346 19.0488 17.9512 18.8536 18.1464L18.1464 18.8536C17.9512 19.0488 17.6346 19.0488 17.4393 18.8536L12 13.4142L6.56066 18.8536C6.3654 19.0488 6.04882 19.0488 5.85355 18.8536L5.14645 18.1464C4.95118 17.9512 4.95118 17.6346 5.14645 17.4393L10.5858 12Z" fill="black" fill-opacity="0.65"/>
</svg>
