<svg width="32" height="32" viewBox="0 0 32 32" fill="none" xmlns="http://www.w3.org/2000/svg">
<path fill-rule="evenodd" clip-rule="evenodd" d="M14.8213 15.9998L10.2885 11.4671C10.1258 11.3043 10.1258 11.0405 10.2885 10.8778L10.8778 10.2885C11.0405 10.1258 11.3043 10.1258 11.4671 10.2885L15.9998 14.8213L20.5326 10.2885C20.6953 10.1258 20.9592 10.1258 21.1219 10.2885L21.7111 10.8778C21.8739 11.0405 21.8739 11.3043 21.7111 11.4671L17.1783 15.9998L21.7111 20.5326C21.8739 20.6953 21.8739 20.9592 21.7111 21.1219L21.1219 21.7111C20.9592 21.8739 20.6953 21.8739 20.5326 21.7111L15.9998 17.1783L11.4671 21.7111C11.3043 21.8739 11.0405 21.8739 10.8778 21.7111L10.2885 21.1219C10.1258 20.9592 10.1258 20.6953 10.2885 20.5326L14.8213 15.9998Z" fill="black" fill-opacity="0.48"/>
</svg>
